# xmcd
#
# Track frame offsets:
# 183
# 15163
# 33968
# 49710
# 68968
# 89795
# 108243
# 124190
# 147240
# 168015
# 187915
# 214823
#
# Disc length: 3239 seconds
#
#
# Revision: 2
# Processed by: cddbd v1.5.2PL0 Copyright (c) Steve Scherf et al.
# Submitted via: FreeRIP 2.945 
#
DISCID=9c0ca50c
DTITLE=Mia Martini - Rapsodia
DYEAR=1992
DGENRE=Pop
TTITLE0=Rapsodia
TTITLE1=Piccolo uomo
TTITLE2=Donna sola
TTITLE3=Inno
TTITLE4=Minuetto
TTITLE5=E non finisce mica il cielo
TTITLE6=Scrupoli
TTITLE7=Almeno tu nell'universo
TTITLE8=La nevicata del '56
TTITLE9=Cu' mme
TTITLE10=Stelle
TTITLE11=La costruzione di un amore
EXTD=
EXTT0=
EXTT1=
EXTT2=
EXTT3=
EXTT4=
EXTT5=
EXTT6=
EXTT7=
EXTT8=
EXTT9=
EXTT10=
EXTT11=
PLAYORDER=
